<svg width="1024" height="1024" viewBox="0 0 532 512" fill="none" xmlns="http://www.w3.org/2000/svg">
<rect width="1024" height="1024" fill="#0a0a0a"/>
<path d="M384.637 417.579C373.961 421.221 362.481 421.72 351.66 419.013C340.84 416.305 331.168 410.515 323.877 402.378C316.586 394.241 312.005 384.126 310.719 373.323C309.433 362.519 311.5 351.514 316.655 341.711L371.28 236.362C373.02 233.643 374.166 230.614 374.643 227.47C375.121 224.325 374.92 221.133 374.053 218.098C373.187 215.062 371.674 212.25 369.611 209.84C367.548 207.429 364.981 205.474 362.072 204.099C359.163 202.724 355.977 201.958 352.717 201.852C349.457 201.745 346.194 202.3 343.137 203.48C340.079 204.66 337.294 206.44 334.959 208.707C332.624 210.973 330.791 213.676 329.575 216.643L256.552 356.892C249.487 369.847 237.592 379.761 223.357 384.556C209.122 389.351 193.653 388.655 180.19 382.614C166.83 376.262 156.729 364.974 152.096 351.22C147.463 337.466 148.676 322.367 155.469 309.226L246.737 133.624C248.477 130.904 249.623 127.876 250.1 124.731C250.578 121.587 250.377 118.395 249.51 115.359C248.644 112.324 247.131 109.512 245.068 107.101C243.005 104.691 240.438 102.736 237.529 101.361C234.62 99.9855 231.434 99.2201 228.174 99.1135C224.914 99.0069 221.651 99.5614 218.593 100.742C215.536 101.922 212.751 103.702 210.416 105.968C208.081 108.235 206.248 110.938 205.032 113.905L116.274 283.428L86.9235 269.678L175.056 99.8594C182.318 87.4336 194.166 78.087 208.143 73.7561C222.121 69.4251 237.157 70.4418 250.138 76.5954C263.118 82.749 273.047 93.5679 277.868 106.811C282.689 120.053 282.032 134.705 276.033 147.73L184.871 323.128C182.076 328.559 181.581 334.795 183.494 340.475C185.408 346.155 189.574 350.82 195.086 353.453C200.643 355.917 207.012 356.19 212.874 354.215C218.736 352.24 223.642 348.17 226.576 342.846L299.548 202.446C302.697 195.571 307.238 189.357 312.895 184.181C318.552 179.004 325.208 174.973 332.459 172.331C339.71 169.69 347.404 168.493 355.076 168.814C362.748 169.135 370.238 170.967 377.09 174.198C383.943 177.429 390.015 181.993 394.941 187.612C399.866 193.231 403.54 199.789 405.741 206.888C407.943 213.986 408.625 221.478 407.746 228.908C406.868 236.338 404.447 243.552 400.631 250.112L345.849 355.514C343.665 360.846 343.597 366.732 345.657 372.016C347.717 377.3 351.758 381.599 356.984 384.07C362.21 386.541 368.244 387.005 373.901 385.369C379.557 383.734 384.427 380.118 387.554 375.233L434.835 284.513L464.862 298.711L417.632 389.582C414.278 396.102 409.633 401.936 403.967 406.744C398.301 411.551 391.73 415.235 384.637 417.579Z" fill="#B2222D"/>
</svg>
